<?xml version="1.0" encoding="UTF-8"?>
<svg id="Layer_2" data-name="Layer 2" xmlns="http://www.w3.org/2000/svg" viewBox="0 0 594.72 153.9">
  <g id="Layer_1-2" data-name="Layer 1">
    <g>
      <path d="M0,4.68c0-.12,.12-.18,.36-.18H38.88c12.84,0,25.74-.06,38.7-.18l3.78,30.24c0,.24-.12,.36-.36,.36h-.36c-.24,0-.36-.12-.36-.36-.12-1.08-.69-3.12-1.71-6.12-1.02-3-2.7-6.06-5.04-9.18-2.34-3.12-5.4-6-9.18-8.64-3.78-2.64-8.55-4.14-14.31-4.5h-13.68c-2.76,0-5.22,1.08-7.38,3.24s-3.24,4.62-3.24,7.38v50.94h22.32c1.32,0,2.61-.42,3.87-1.26,1.26-.84,2.4-1.83,3.42-2.97,1.02-1.14,1.86-2.4,2.52-3.78,.66-1.38,.99-2.67,.99-3.87,0-.24,.06-.36,.18-.36h.36c.24,0,.36,.06,.36,.18v26.1c0,.12-.12,.18-.36,.18h-.36l-.18-.18v-.18c0-1.2-.33-2.49-.99-3.87-.66-1.38-1.5-2.67-2.52-3.87-1.02-1.2-2.16-2.19-3.42-2.97-1.26-.78-2.55-1.23-3.87-1.35H25.74v44.64c0,1.56,.39,3.06,1.17,4.5,.78,1.44,1.77,2.64,2.97,3.6,1.2,.96,2.52,1.74,3.96,2.34,1.44,.6,2.82,.9,4.14,.9,.36,0,.54,.12,.54,.36v.36c0,.24-.12,.36-.36,.36H.36c-.24,0-.36-.12-.36-.36v-.36c0-.24,.18-.36,.54-.36,1.32,0,2.7-.3,4.14-.9,1.44-.6,2.76-1.38,3.96-2.34,1.2-.96,2.19-2.16,2.97-3.6,.78-1.44,1.17-2.94,1.17-4.5V16.74c0-1.68-.39-3.21-1.17-4.59-.78-1.38-1.77-2.55-2.97-3.51-1.2-.96-2.52-1.74-3.96-2.34-1.44-.6-2.82-.9-4.14-.9-.36,0-.54-.12-.54-.36v-.36Z"/>
      <path d="M91.44,17.46c1.08-.84,2.7-2.1,4.86-3.78,2.16-1.68,4.44-3.42,6.84-5.22,2.4-1.8,4.62-3.51,6.66-5.13,2.04-1.62,3.42-2.67,4.14-3.15,.12-.12,.24-.18,.36-.18h.9c.24,0,.36,.06,.36,.18V110.7c0,2.28,.15,4.11,.45,5.49,.3,1.38,1.17,3.09,2.61,5.13,1.08,1.32,2.28,2.46,3.6,3.42,1.32,.96,2.76,1.56,4.32,1.8v.36l-.18,.36h-33.3c-.24,0-.36-.12-.36-.36v-.36c0-.24,.12-.36,.36-.36,1.2,0,2.49-.45,3.87-1.35,1.38-.9,2.67-2.13,3.87-3.69,1.44-1.92,2.28-3.57,2.52-4.95,.24-1.38,.36-3.21,.36-5.49V27.54c0-3.36-.39-6.09-1.17-8.19-.78-2.1-2.25-3.15-4.41-3.15-1.8,0-3.84,.66-6.12,1.98-.12,.12-.24,.12-.36,0l-.18-.36c-.12-.12-.12-.24,0-.36Z"/>
      <path d="M161.82,43.02c4.44,0,8.61,1.08,12.51,3.24,3.9,2.16,7.32,5.01,10.26,8.55,2.94,3.54,5.4,7.53,7.38,11.97,1.98,4.44,3.33,8.94,4.05,13.5h-29.43c-9.78,0-19.59,.06-29.43,.18,.24,3.36,.6,6.72,1.08,10.08,.12,.6,.24,1.14,.36,1.62,.12,.48,.24,1.02,.36,1.62l.36,1.8c1.32,4.92,2.94,9.3,4.86,13.14,2.52,4.92,5.76,8.49,9.72,10.71,3.96,2.22,8.16,3.21,12.6,2.97,7.44-.24,13.38-2.64,17.82-7.2,4.44-4.56,7.56-10.14,9.36-16.74,.12-.36,.3-.48,.54-.36,.24,0,.39,.03,.45,.09,.06,.06,.15,.09,.27,.09,.36,.12,.57,.18,.63,.18s.03,.18-.09,.54c-.84,3.96-2.25,7.77-4.23,11.43-1.98,3.66-4.41,6.9-7.29,9.72-2.88,2.82-6.18,5.1-9.9,6.84-3.72,1.74-7.8,2.61-12.24,2.61-4.8,0-9.36-1.14-13.68-3.42-4.32-2.28-8.07-5.37-11.25-9.27-3.18-3.9-5.7-8.46-7.56-13.68-1.86-5.22-2.79-10.83-2.79-16.83s.93-11.64,2.79-16.92c1.86-5.28,4.38-9.87,7.56-13.77,3.18-3.9,6.93-6.99,11.25-9.27,4.32-2.28,8.88-3.42,13.68-3.42Zm-24.66,35.64l46.44-.18c-.72-3.84-1.98-7.8-3.78-11.88-1.8-4.08-3.96-7.77-6.48-11.07-2.52-3.3-5.4-5.91-8.64-7.83-3.24-1.92-6.66-2.52-10.26-1.8-2.64,.48-5.04,1.65-7.2,3.51-2.16,1.86-3.99,4.23-5.49,7.11-1.5,2.88-2.64,6.21-3.42,9.99-.78,3.78-1.17,7.83-1.17,12.15Z"/>
      <path d="M199.8,56.34c1.08-.84,2.73-2.1,4.95-3.78,2.22-1.68,4.5-3.42,6.84-5.22,2.34-1.8,4.53-3.51,6.57-5.13,2.04-1.62,3.42-2.67,4.14-3.15,.12-.12,.24-.18,.36-.18h.9c.24,0,.36,.12,.36,.36v61.92c0,7.56,1.77,13.71,5.31,18.45,3.54,4.74,8.19,7.11,13.95,7.11,2.64,0,5.28-.51,7.92-1.53,2.64-1.02,5.22-2.31,7.74-3.87,2.52-1.56,4.86-3.27,7.02-5.13,2.16-1.86,4.14-3.63,5.94-5.31V62.82c0-2.4-.45-4.29-1.35-5.67-.9-1.38-2.25-2.07-4.05-2.07-1.68,0-3.78,.72-6.3,2.16-.12,.12-.24,.06-.36-.18l-.18-.36c-.12-.12-.12-.24,0-.36,1.08-.84,2.73-2.1,4.95-3.78,2.22-1.68,4.5-3.42,6.84-5.22,2.34-1.8,4.53-3.51,6.57-5.13,2.04-1.62,3.42-2.67,4.14-3.15,.12-.12,.24-.18,.36-.18h.9c.24,0,.36,.12,.36,.36,0,3.96-.03,7.89-.09,11.79-.06,3.9-.09,7.83-.09,11.79v37.08c0,3.48,.42,6.24,1.26,8.28,.84,2.04,2.34,3.06,4.5,3.06,1.8,0,3.84-.66,6.12-1.98,.12-.12,.24-.12,.36,0l.18,.36c.12,.24,.12,.42,0,.54-1.08,.84-2.73,2.1-4.95,3.78-2.22,1.68-4.53,3.42-6.93,5.22-2.4,1.8-4.59,3.48-6.57,5.04-1.98,1.56-3.33,2.64-4.05,3.24h-1.26c-.24,0-.36-.06-.36-.18v-13.86c-1.8,1.68-3.81,3.42-6.03,5.22-2.22,1.8-4.56,3.42-7.02,4.86-2.46,1.44-5.01,2.64-7.65,3.6-2.64,.96-5.28,1.44-7.92,1.44-9.48,0-17.04-2.16-22.68-6.48-5.64-4.32-8.46-11.4-8.46-21.24V62.82c0-2.64-.48-4.59-1.44-5.85-.96-1.26-2.28-1.89-3.96-1.89-1.8,0-3.9,.72-6.3,2.16-.12,.12-.24,.06-.36-.18l-.18-.36c-.12-.12-.12-.24,0-.36Z"/>
      <path d="M298.08,56.34c1.08-.84,2.7-2.1,4.86-3.78,2.16-1.68,4.44-3.42,6.84-5.22,2.4-1.8,4.62-3.51,6.66-5.13,2.04-1.62,3.42-2.67,4.14-3.15h1.26c.24,0,.36,.06,.36,.18v18.9c2.64-4.8,6.24-8.61,10.8-11.43,4.56-2.82,9.54-4.23,14.94-4.23,3.72,0,6.84,.93,9.36,2.79,2.52,1.86,4.23,3.87,5.13,6.03,.9,2.16,.84,4.17-.18,6.03-1.02,1.86-3.21,2.79-6.57,2.79-1.44,0-2.52-.51-3.24-1.53-.72-1.02-1.41-2.25-2.07-3.69-.66-1.44-1.44-2.88-2.34-4.32-.9-1.44-2.25-2.58-4.05-3.42-1.08-.48-2.28-.72-3.6-.72-2.04,0-3.9,.51-5.58,1.53-1.68,1.02-2.94,1.77-3.78,2.25-2.16,1.68-3.96,3.6-5.4,5.76-1.44,2.16-2.58,4.26-3.42,6.3v48.42c0,2.28,.15,4.11,.45,5.49,.3,1.38,1.17,3.09,2.61,5.13,1.08,1.32,2.28,2.46,3.6,3.42,1.32,.96,2.76,1.56,4.32,1.8v.36l-.18,.36h-33.3c-.24,0-.36-.12-.36-.36v-.36c0-.24,.12-.36,.36-.36,1.2,0,2.49-.45,3.87-1.35,1.38-.9,2.61-2.13,3.69-3.69,1.56-1.92,2.46-3.57,2.7-4.95,.24-1.38,.36-3.21,.36-5.49v-44.1c0-3.48-.39-6.24-1.17-8.28-.78-2.04-2.25-3.06-4.41-3.06-1.8,0-3.84,.66-6.12,1.98-.12,.12-.24,.06-.36-.18l-.18-.36c-.12-.12-.12-.24,0-.36Z"/>
      <path d="M366.66,106.74c0-3.96,.87-7.44,2.61-10.44,1.74-3,4.02-5.61,6.84-7.83,2.82-2.22,5.97-4.08,9.45-5.58,3.48-1.5,6.9-2.76,10.26-3.78,3.36-1.02,6.51-1.8,9.45-2.34,2.94-.54,5.31-.93,7.11-1.17v-15.66c0-5.64-1.29-9.72-3.87-12.24-2.58-2.52-6.57-3.78-11.97-3.78-2.88,0-5.13,.54-6.75,1.62-1.62,1.08-2.85,2.43-3.69,4.05-.84,1.62-1.5,3.36-1.98,5.22-.48,1.86-.96,3.6-1.44,5.22-.48,1.62-1.17,2.97-2.07,4.05-.9,1.08-2.25,1.62-4.05,1.62-1.68,0-2.94-.69-3.78-2.07-.84-1.38-1.26-2.91-1.26-4.59,0-2.4,.69-4.62,2.07-6.66,1.38-2.04,3.24-3.84,5.58-5.4,2.34-1.56,5.01-2.76,8.01-3.6,3-.84,6.12-1.26,9.36-1.26,5.28,0,9.69,.6,13.23,1.8,3.54,1.2,6.36,2.97,8.46,5.31,2.1,2.34,3.6,5.25,4.5,8.73,.9,3.48,1.35,7.5,1.35,12.06v43.56c0,2.4,.45,4.14,1.35,5.22,.9,1.08,2.43,1.62,4.59,1.62,1.32,0,2.49-.33,3.51-.99,1.02-.66,1.89-1.38,2.61-2.16,.72-.78,1.44-1.89,2.16-3.33,.48-.48,.9-.54,1.26-.18,.6,.24,.72,.66,.36,1.26-.72,1.32-1.53,2.73-2.43,4.23-.9,1.5-1.98,2.91-3.24,4.23-1.26,1.32-2.73,2.4-4.41,3.24-1.68,.84-3.66,1.26-5.94,1.26-2.16,0-3.96-.3-5.4-.9-1.44-.6-2.61-1.44-3.51-2.52-.9-1.08-1.53-2.34-1.89-3.78s-.6-2.94-.72-4.5c-3.12,3.12-6.84,5.61-11.16,7.47-4.32,1.86-8.64,2.91-12.96,3.15-1.8,.12-3.57,.09-5.31-.09-1.74-.18-3.39-.57-4.95-1.17-3.36-1.32-6.09-3.48-8.19-6.48-2.1-3-3.15-7.14-3.15-12.42Zm45.54,7.2c0-1.32,.03-2.64,.09-3.96,.06-1.32,.09-2.58,.09-3.78v-28.62c-1.44,.24-3.24,.51-5.4,.81-2.16,.3-4.44,.75-6.84,1.35-5.76,1.44-10.32,3.48-13.68,6.12-3.36,2.64-5.76,5.55-7.2,8.73-1.44,3.18-2.01,6.42-1.71,9.72,.3,3.3,1.2,6.27,2.7,8.91,1.5,2.64,3.57,4.83,6.21,6.57,2.64,1.74,5.58,2.61,8.82,2.61s6.21-.84,9.27-2.52c3.06-1.68,5.61-3.66,7.65-5.94Z"/>
      <path d="M474.12,152.1c2.88,0,5.01-.54,6.39-1.62,1.38-1.08,2.4-2.37,3.06-3.87,.66-1.5,1.2-3.09,1.62-4.77,.42-1.68,1.23-3.12,2.43-4.32,.6-.6,1.32-1.17,2.16-1.71,.84-.54,1.86-.81,3.06-.81,1.8,0,2.7,.99,2.7,2.97s-.81,4.14-2.43,6.48-4.05,4.5-7.29,6.48c-3.24,1.98-7.14,2.97-11.7,2.97-3.84,0-7.56-.66-11.16-1.98-3.6-1.32-6.81-3.21-9.63-5.67-2.82-2.46-5.1-5.37-6.84-8.73-1.74-3.36-2.61-7.08-2.61-11.16,0-2.76,.6-5.34,1.8-7.74,1.2-2.4,2.76-4.5,4.68-6.3,1.92-1.8,4.14-3.24,6.66-4.32,2.52-1.08,5.04-1.62,7.56-1.62,3.84,0,7.08,.75,9.72,2.25,2.64,1.5,5.1,3.18,7.38,5.04,2.28,1.86,4.62,3.57,7.02,5.13,2.4,1.56,5.28,2.34,8.64,2.34,3.84,0,7.2-.78,10.08-2.34,2.88-1.56,4.86-3.3,5.94-5.22,.72-1.44,1.08-2.94,1.08-4.5,.12-1.44-.18-2.82-.9-4.14-.84-1.68-2.16-3.03-3.96-4.05-1.8-1.02-4.14-1.53-7.02-1.53-2.28,0-4.62,.3-7.02,.9-4.08,1.68-8.22,2.52-12.42,2.52s-8.37-.78-12.15-2.34c-3.78-1.56-7.08-3.72-9.9-6.48-2.82-2.76-5.04-5.97-6.66-9.63-1.62-3.66-2.43-7.59-2.43-11.79s.81-8.13,2.43-11.79c1.62-3.66,3.84-6.87,6.66-9.63,2.82-2.76,6.12-4.92,9.9-6.48,3.78-1.56,7.83-2.34,12.15-2.34s8.19,.78,11.97,2.34c3.78,1.56,7.11,3.72,9.99,6.48,.24-3.36,.99-6.42,2.25-9.18,1.26-2.76,2.91-5.13,4.95-7.11,2.04-1.98,4.35-3.51,6.93-4.59,2.58-1.08,5.19-1.62,7.83-1.62,1.44,0,2.88,.18,4.32,.54,1.08,.36,2.01,.93,2.79,1.71,.78,.78,1.32,1.62,1.62,2.52,.3,.9,.27,1.83-.09,2.79-.36,.96-1.14,1.8-2.34,2.52-.84,.6-2.1,.9-3.78,.9s-3.45-.21-5.31-.63c-1.86-.42-3.81-.51-5.85-.27-1.8,.24-3.81,.84-6.03,1.8-2.22,.96-3.93,3-5.13,6.12-.24,.84-.42,1.74-.54,2.7-.12,.96-.18,1.98-.18,3.06v.36c2.4,2.76,4.26,5.79,5.58,9.09,1.32,3.3,1.98,6.87,1.98,10.71,0,5.28-1.23,10.08-3.69,14.4-2.46,4.32-5.79,7.86-9.99,10.62h2.16c3.24,0,5.91,.63,8.01,1.89,2.1,1.26,3.63,2.85,4.59,4.77,1.68,3.36,2.19,6.69,1.53,9.99-.66,3.3-2.1,6.3-4.32,9-2.22,2.7-5.01,4.89-8.37,6.57-3.36,1.68-6.9,2.52-10.62,2.52-3.24,0-6.21-.87-8.91-2.61-2.7-1.74-5.4-3.66-8.1-5.76-2.7-2.1-5.55-4.02-8.55-5.76-3-1.74-6.42-2.61-10.26-2.61-3.24,0-5.76,.9-7.56,2.7-1.8,1.8-2.94,4.05-3.42,6.75-.48,2.7-.24,5.64,.72,8.82,.96,3.18,2.58,6.12,4.86,8.82,2.28,2.7,5.25,4.95,8.91,6.75,3.66,1.8,8.01,2.7,13.05,2.7Zm-7.02-68.76c3.24,4.8,7.02,8.55,11.34,11.25,4.32,2.7,8.52,4.05,12.6,4.05,3,0,5.7-.84,8.1-2.52,2.16-1.44,3.81-3.45,4.95-6.03,1.14-2.58,1.71-5.43,1.71-8.55s-.57-6.42-1.71-9.9c-1.14-3.48-2.85-6.84-5.13-10.08-3.36-4.8-7.2-8.52-11.52-11.16-4.32-2.64-8.46-3.96-12.42-3.96-3.12,0-5.82,.78-8.1,2.34-2.16,1.56-3.81,3.63-4.95,6.21-1.14,2.58-1.71,5.43-1.71,8.55s.57,6.39,1.71,9.81c1.14,3.42,2.85,6.75,5.13,9.99Z"/>
      <path d="M560.52,43.02c4.44,0,8.61,1.08,12.51,3.24,3.9,2.16,7.32,5.01,10.26,8.55,2.94,3.54,5.4,7.53,7.38,11.97,1.98,4.44,3.33,8.94,4.05,13.5h-29.43c-9.78,0-19.59,.06-29.43,.18,.24,3.36,.6,6.72,1.08,10.08,.12,.6,.24,1.14,.36,1.62,.12,.48,.24,1.02,.36,1.62l.36,1.8c1.32,4.92,2.94,9.3,4.86,13.14,2.52,4.92,5.76,8.49,9.72,10.71,3.96,2.22,8.16,3.21,12.6,2.97,7.44-.24,13.38-2.64,17.82-7.2,4.44-4.56,7.56-10.14,9.36-16.74,.12-.36,.3-.48,.54-.36,.24,0,.39,.03,.45,.09,.06,.06,.15,.09,.27,.09,.36,.12,.57,.18,.63,.18s.03,.18-.09,.54c-.84,3.96-2.25,7.77-4.23,11.43-1.98,3.66-4.41,6.9-7.29,9.72-2.88,2.82-6.18,5.1-9.9,6.84-3.72,1.74-7.8,2.61-12.24,2.61-4.8,0-9.36-1.14-13.68-3.42-4.32-2.28-8.07-5.37-11.25-9.27-3.18-3.9-5.7-8.46-7.56-13.68-1.86-5.22-2.79-10.83-2.79-16.83s.93-11.64,2.79-16.92c1.86-5.28,4.38-9.87,7.56-13.77,3.18-3.9,6.93-6.99,11.25-9.27,4.32-2.28,8.88-3.42,13.68-3.42Zm-24.66,35.64l46.44-.18c-.72-3.84-1.98-7.8-3.78-11.88-1.8-4.08-3.96-7.77-6.48-11.07-2.52-3.3-5.4-5.91-8.64-7.83-3.24-1.92-6.66-2.52-10.26-1.8-2.64,.48-5.04,1.65-7.2,3.51-2.16,1.86-3.99,4.23-5.49,7.11-1.5,2.88-2.64,6.21-3.42,9.99-.78,3.78-1.17,7.83-1.17,12.15Z"/>
    </g>
  </g>
</svg>